<svg width="1080" height="1920" viewBox="0 0 1080 1920" xmlns="http://www.w3.org/2000/svg">
  <defs>
    <linearGradient id="bg" x1="0%" y1="0%" x2="100%" y2="100%">
      <stop offset="0%" stop-color="#08111A"/>
      <stop offset="100%" stop-color="#03070B"/>
    </linearGradient>
    <radialGradient id="glow" cx="50%" cy="45%" r="55%">
      <stop offset="0%" stop-color="#FF4D5C" stop-opacity="0.22"/>
      <stop offset="70%" stop-color="#FF2A2A" stop-opacity="0.08"/>
      <stop offset="100%" stop-color="#FF2A2A" stop-opacity="0"/>
    </radialGradient>
    <linearGradient id="shell" x1="0%" y1="0%" x2="100%" y2="100%">
      <stop offset="0%" stop-color="#D84A31"/>
      <stop offset="45%" stop-color="#A61E17"/>
      <stop offset="100%" stop-color="#4F0A10"/>
    </linearGradient>
    <linearGradient id="shell2" x1="0%" y1="0%" x2="100%" y2="100%">
      <stop offset="0%" stop-color="#C93B2B"/>
      <stop offset="100%" stop-color="#7B1218"/>
    </linearGradient>
    <filter id="softShadow" x="-30%" y="-30%" width="160%" height="160%">
      <feGaussianBlur stdDeviation="20"/>
    </filter>
  </defs>

  <rect width="1080" height="1920" fill="url(#bg)"/>
  <ellipse cx="540" cy="980" rx="360" ry="420" fill="url(#glow)" filter="url(#softShadow)"/>
  <ellipse cx="540" cy="1320" rx="290" ry="90" fill="#000" opacity="0.35"/>

  <g transform="translate(540,940)">
    <!-- antennae -->
    <path d="M -12 -250 C -70 -420 -150 -500 -250 -590" fill="none" stroke="#E18A73" stroke-width="10" stroke-linecap="round" opacity="0.7"/>
    <path d="M 12 -250 C 70 -420 150 -500 250 -590" fill="none" stroke="#E18A73" stroke-width="10" stroke-linecap="round" opacity="0.7"/>

    <!-- eyes -->
    <circle cx="-58" cy="-180" r="18" fill="#1B0B0C"/>
    <circle cx="58" cy="-180" r="18" fill="#1B0B0C"/>
    <circle cx="-58" cy="-180" r="8" fill="#FFFFFF" opacity="0.85"/>
    <circle cx="58" cy="-180" r="8" fill="#FFFFFF" opacity="0.85"/>

    <!-- claws -->
    <g>
      <path d="M -180 -70 C -315 -120 -420 -170 -485 -250 C -540 -316 -530 -390 -475 -410 C -410 -435 -350 -385 -320 -320 C -290 -248 -240 -180 -160 -110" fill="none" stroke="#7A1217" stroke-width="78" stroke-linecap="round"/>
      <path d="M -210 -120 C -330 -150 -408 -200 -452 -260" fill="none" stroke="#FF6A4F" stroke-width="20" stroke-linecap="round" opacity="0.7"/>
      <path d="M -470 -420 C -340 -470 -240 -430 -180 -350" fill="none" stroke="#FF8A66" stroke-width="18" stroke-linecap="round" opacity="0.8"/>
      <path d="M -485 -248 C -525 -218 -548 -170 -540 -132 C -532 -95 -500 -78 -455 -86 C -400 -96 -360 -140 -340 -186" fill="url(#shell2)" stroke="#651016" stroke-width="8"/>
      <path d="M 180 -70 C 320 -120 430 -170 500 -250 C 555 -312 550 -395 484 -418 C 408 -445 340 -385 316 -316 C 288 -237 240 -178 160 -110" fill="none" stroke="#9E0E15" stroke-width="82" stroke-linecap="round"/>
      <path d="M 210 -120 C 330 -150 408 -200 452 -260" fill="none" stroke="#FF6A4F" stroke-width="20" stroke-linecap="round" opacity="0.7"/>
      <path d="M 470 -420 C 340 -470 240 -430 180 -350" fill="none" stroke="#FF8A66" stroke-width="18" stroke-linecap="round" opacity="0.8"/>
      <path d="M 500 -250 C 540 -220 572 -165 560 -128 C 548 -90 505 -72 450 -82 C 388 -94 350 -140 330 -188" fill="url(#shell2)" stroke="#7E1116" stroke-width="10"/>
    </g>

    <!-- body -->
    <ellipse cx="0" cy="78" rx="228" ry="184" fill="url(#shell)" stroke="#651016" stroke-width="12"/>
    <ellipse cx="0" cy="10" rx="162" ry="108" fill="#FFB39B" opacity="0.16"/>
    <path d="M -160 45 C -100 10 100 10 160 45" fill="none" stroke="#FFAA8A" stroke-width="10" opacity="0.35"/>
    <path d="M -125 95 C -65 70 65 70 125 95" fill="none" stroke="#FFAA8A" stroke-width="10" opacity="0.28"/>

    <!-- tail -->
    <path d="M -112 228 C -112 350 -86 454 0 500 C 86 454 112 350 112 228 C 58 250 -58 250 -112 228 Z" fill="url(#shell2)" stroke="#651016" stroke-width="12"/>
    <path d="M -85 260 C -85 350 -55 425 0 462 C 55 425 85 350 85 260" fill="none" stroke="#FFD0BA" stroke-width="10" opacity="0.4"/>

    <!-- legs -->
    <g stroke="#8F171A" stroke-width="15" stroke-linecap="round">
      <path d="M -155 145 C -240 190 -300 260 -360 350"/>
      <path d="M -105 165 C -185 230 -220 320 -260 420"/>
      <path d="M -45 182 C -110 260 -120 350 -145 450"/>
      <path d="M 45 182 C 110 260 120 350 145 450"/>
      <path d="M 105 165 C 185 230 220 320 260 420"/>
      <path d="M 155 145 C 240 190 300 260 360 350"/>
    </g>

    <!-- highlight line -->
    <path d="M -80 -10 C -25 -45 30 -48 80 -15" fill="none" stroke="#FFD3C5" stroke-width="10" opacity="0.22" stroke-linecap="round"/>
    <circle cx="-360" cy="-540" r="8" fill="#A7D4FF" opacity="0.12"/>
    <circle cx="-240" cy="-670" r="6" fill="#A7D4FF" opacity="0.10"/>
    <circle cx="350" cy="-560" r="7" fill="#A7D4FF" opacity="0.10"/>
    <circle cx="260" cy="-700" r="5" fill="#A7D4FF" opacity="0.08"/>
  </g>
</svg>
